<svg xml:space="preserve" width="755.907" height="755.905" viewBox="0 0 755.907 600.905"><defs><clipPath id="a" clipPathUnits="userSpaceOnUse"><path d="M0 566.929h566.93V0H0Z"/></clipPath></defs><g clip-path="url(#a)" style="display:inline" transform="matrix(8.96643 0 0 -8.96643 -2163.716 2800.306)"><path d="M0 0c0-.88-.361-2.159-3.49-3.104-1.328-.401-2.351-1.81-3.647-3.594-1.159-1.595-2.471-3.404-4.258-4.839-2.563-2.062-6.704-4.52-11.867-4.52-4.11 0-7.679 1.328-11.231 4.178-2.06 1.652-3.613 3.67-4.862 5.291-1.319 1.713-2.361 3.065-3.563 3.475-2.5.852-3.52 1.755-3.52 3.113l.003.106-.003.107c0 1.358 1.02 2.261 3.52 3.113 1.202.41 2.244 1.762 3.563 3.474 1.249 1.622 2.802 3.639 4.862 5.292 3.553 2.85 7.121 4.178 11.231 4.178 5.163 0 9.304-2.458 11.867-4.52 1.787-1.437 3.099-3.245 4.258-4.84 1.296-1.784 2.319-3.192 3.647-3.594C-.361 2.372 0 1.093 0 .213L-.003.106Zm1.705.106v.002c.002.035.002.07.002.105 0 2.201-1.583 3.796-4.703 4.738-.778.235-1.74 1.559-2.759 2.963-1.161 1.598-2.606 3.587-4.57 5.166-2.779 2.234-7.277 4.897-12.937 4.897-4.457 0-8.48-1.49-12.3-4.554-2.218-1.779-3.841-3.887-5.146-5.581-1.053-1.366-2.046-2.656-2.762-2.9-2.176-.743-4.675-1.952-4.675-4.729l.002-.105V.103L-48.145 0c0-2.778 2.499-3.986 4.675-4.729.716-.244 1.709-1.535 2.762-2.901 1.305-1.693 2.928-3.801 5.146-5.58 3.819-3.064 7.842-4.554 12.3-4.554 5.66 0 10.158 2.662 12.937 4.896 1.964 1.579 3.409 3.568 4.57 5.167 1.019 1.403 1.981 2.728 2.759 2.963C.124-3.796 1.707-2.201 1.707 0c0 .035 0 .068-.002.103z" style="fill:#67bf0d;fill-opacity:1;fill-rule:nonzero;stroke:none" transform="translate(306.684 276.858)"/><path d="M0 0c1.098-1.12 1.635-2.174 2.325-3.81.518-1.226.976-1.357 1.5-.133 0 0 .661 1.436.768 3.648.073 1.511-.113 2.107-.347 2.753-.47 1.284-1.529 2.324-2.713 2.916-1.168.584-2.401.798-3.695.798-2.664 0-5.157-1.165-5.157-1.165-1.205-.564-1.037-1.102-.316-1.272.338-.08.532-.085 1.472-.329C-3.496 2.711-1.898 1.937 0 0" style="fill:#cbdb2e;fill-opacity:1;fill-rule:nonzero;stroke:none" transform="translate(285.76 284.329)"/><path d="M0 0c-.878-1.3-1.803-2.036-3.268-3.039-1.098-.751-1.134-1.226.169-1.496 0 0 1.538-.361 3.727-.024 1.496.231 2.043.53 2.628.889 1.165.716 1.972 1.963 2.315 3.24.339 1.262.305 2.513.046 3.781-.531 2.609-2.171 4.82-2.171 4.82-.794 1.068-1.288.796-1.309.055-.011-.346.023-.538-.029-1.507C1.959 3.967 1.52 2.247 0 0" style="fill:#cbdb2e;fill-opacity:1;fill-rule:nonzero;stroke:none" transform="translate(290.762 276.574)"/><path d="M0 0c-1.514.412-2.51 1.05-3.932 2.113-1.065.796-1.527.677-1.361-.643 0 0 .155-1.574 1.181-3.535.702-1.342 1.161-1.763 1.69-2.201 1.054-.871 2.495-1.232 3.814-1.145 1.304.086 2.478.524 3.593 1.178 2.299 1.345 3.86 3.611 3.86 3.611.756 1.097.34 1.476-.369 1.258-.331-.102-.502-.197-1.437-.46C4.387-.572 2.618-.711 0 0" style="fill:#cbdb2e;fill-opacity:1;fill-rule:nonzero;stroke:none" transform="translate(285.595 269.677)"/><path d="M0 0c-.126 1.564.136 2.718.654 4.415.388 1.273.119 1.667-1.066 1.064 0 0-1.428-.68-2.926-2.31-1.023-1.115-1.264-1.69-1.496-2.337-.463-1.286-.314-2.765.215-3.976.523-1.198 1.333-2.152 2.326-2.981C-.247-7.83 2.414-8.531 2.414-8.531c1.287-.34 1.503.181 1.058.774-.209.277-.355.405-.92 1.195C.948-4.321.218-2.702 0 0" style="fill:#cbdb2e;fill-opacity:1;fill-rule:nonzero;stroke:none" transform="translate(277.22 272.067)"/><path d="M0 0c1.428.65 2.601.796 4.374.887 1.329.067 1.608.454.637 1.364 0 0-1.125 1.111-3.168 1.965-1.396.584-2.019.615-2.705.613-1.368-.003-2.707-.645-3.666-1.555-.949-.899-1.571-1.985-2.012-3.201-.908-2.504-.663-5.245-.663-5.245.119-1.326.682-1.351 1.088-.731.19.29.261.472.811 1.271C-3.741-2.362-2.468-1.125 0 0" style="fill:#cbdb2e;fill-opacity:1;fill-rule:nonzero;stroke:none" transform="translate(277.142 281.291)"/></g></svg>