{
  "asset": {
    "version": "2.0",
    "generator": "THREE.GLTFExporter r166"
  },
  "scenes": [
    {
      "name": "Scene",
      "nodes": [
        17
      ]
    }
  ],
  "scene": 0,
  "nodes": [
    {
      "matrix": [
        2.220446049250313e-16,
        1,
        0,
        0,
        -144,
        3.197442310920451e-14,
        0,
        0,
        0,
        0,
        1,
        0,
        0.07568227496335211,
        12,
        72,
        1
      ],
      "name": "Cylinder",
      "extras": {
        "name": "Cylinder"
      },
      "mesh": 0
    },
    {
      "matrix": [
        2.220446049250313e-16,
        1,
        0,
        0,
        -144,
        3.197442310920451e-14,
        0,
        0,
        0,
        0,
        1,
        0,
        0.07568227496335211,
        12,
        -72,
        1
      ],
      "name": "Cylinder_1",
      "extras": {
        "name": "Cylinder"
      },
      "mesh": 0
    },
    {
      "matrix": [
        1,
        0,
        0,
        0,
        0,
        1,
        0,
        0,
        0,
        0,
        1,
        0,
        0,
        124.28641476872072,
        0,
        1
      ],
      "name": "AmbientLight",
      "extras": {
        "name": "AmbientLight"
      }
    },
    {
      "matrix": [
        144,
        0,
        0,
        0,
        0,
        12,
        0,
        0,
        0,
        0,
        1,
        0,
        0,
        6,
        72,
        1
      ],
      "name": "Side",
      "extras": {
        "name": "Side"
      },
      "mesh": 1
    },
    {
      "matrix": [
        144,
        0,
        0,
        0,
        0,
        12,
        0,
        0,
        0,
        0,
        1,
        0,
        0,
        6,
        -72,
        1
      ],
      "name": "Box_8",
      "extras": {
        "name": "Box"
      },
      "mesh": 2
    },
    {
      "matrix": [
        1,
        0,
        0,
        0,
        0,
        1,
        0,
        0,
        0,
        0,
        1,
        0,
        0,
        0,
        -1,
        1
      ]
    },
    {
      "matrix": [
        1,
        0,
        0,
        0,
        0,
        1,
        0,
        0,
        0,
        0,
        1,
        0,
        5,
        166.78268131657595,
        42.41129932678017,
        1
      ],
      "name": "DirectionalLight",
      "extras": {
        "name": "DirectionalLight"
      },
      "children": [
        5
      ],
      "extensions": {
        "KHR_lights_punctual": {
          "light": 0
        }
      }
    },
    {
      "matrix": [
        144,
        0,
        0,
        0,
        0,
        1,
        0,
        0,
        0,
        0,
        144,
        0,
        0,
        0,
        0,
        1
      ],
      "name": "Box_9",
      "extras": {
        "name": "Box"
      },
      "mesh": 3
    },
    {
      "matrix": [
        144,
        0,
        0,
        0,
        0,
        1,
        0,
        0,
        0,
        0,
        1,
        0,
        0,
        0.5,
        72,
        1
      ],
      "name": "Box_12",
      "extras": {
        "name": "Box"
      },
      "mesh": 4
    },
    {
      "matrix": [
        144,
        0,
        0,
        0,
        0,
        1,
        0,
        0,
        0,
        0,
        1,
        0,
        0,
        0.5,
        -72,
        1
      ],
      "name": "Box_13",
      "extras": {
        "name": "Box"
      },
      "mesh": 4
    },
    {
      "matrix": [
        0,
        1,
        -1.1102230246251565e-15,
        0,
        -3.197442310920451e-14,
        -1.5987211554602254e-13,
        -144,
        0,
        -1,
        0,
        2.220446049250313e-16,
        0,
        72,
        0,
        0,
        1
      ],
      "name": "Cylinder",
      "extras": {
        "name": "Cylinder"
      },
      "mesh": 0
    },
    {
      "matrix": [
        -3.197442310920451e-14,
        3.526982781544377e-14,
        -144,
        0,
        2.9582283945787943e-31,
        12,
        2.939152317953647e-15,
        0,
        1,
        2.465190328815662e-32,
        -2.220446049250313e-16,
        0,
        72,
        6,
        0,
        1
      ],
      "name": "Side",
      "extras": {
        "name": "Side"
      },
      "mesh": 1
    },
    {
      "matrix": [
        -3.197442310920451e-14,
        3.526982781544377e-14,
        -144,
        0,
        2.9582283945787943e-31,
        12,
        2.939152317953647e-15,
        0,
        1,
        2.465190328815662e-32,
        -2.220446049250313e-16,
        0,
        -72,
        6,
        0,
        1
      ],
      "name": "Side",
      "extras": {
        "name": "Side"
      },
      "mesh": 1
    },
    {
      "matrix": [
        -3.197442310920451e-14,
        3.526982781544377e-14,
        -144,
        0,
        2.9582283945787943e-31,
        12,
        2.939152317953647e-15,
        0,
        1,
        2.465190328815662e-32,
        -2.220446049250313e-16,
        0,
        -72,
        6,
        0,
        1
      ],
      "name": "Side",
      "extras": {
        "name": "Side"
      },
      "mesh": 1
    },
    {
      "matrix": [
        0,
        1,
        -1.1102230246251565e-15,
        0,
        -3.197442310920451e-14,
        -1.5987211554602254e-13,
        -144,
        0,
        -1,
        0,
        2.220446049250313e-16,
        0,
        -72,
        0,
        0,
        1
      ],
      "name": "Cylinder",
      "extras": {
        "name": "Cylinder"
      },
      "mesh": 0
    },
    {
      "matrix": [
        0,
        1,
        -1.1102230246251565e-15,
        0,
        -3.197442310920451e-14,
        -1.5987211554602254e-13,
        -144,
        0,
        -1,
        0,
        2.220446049250313e-16,
        0,
        72,
        12,
        0,
        1
      ],
      "name": "Cylinder",
      "extras": {
        "name": "Cylinder"
      },
      "mesh": 0
    },
    {
      "matrix": [
        0,
        1,
        -1.1102230246251565e-15,
        0,
        -3.197442310920451e-14,
        -1.5987211554602254e-13,
        -144,
        0,
        -1,
        0,
        2.220446049250313e-16,
        0,
        -72,
        12,
        0,
        1
      ],
      "name": "Cylinder",
      "extras": {
        "name": "Cylinder"
      },
      "mesh": 0
    },
    {
      "name": "frcfieldbase.gltf",
      "children": [
        0,
        1,
        2,
        3,
        4,
        6,
        7,
        8,
        9,
        10,
        11,
        12,
        13,
        14,
        15,
        16
      ]
    }
  ],
  "bufferViews": [
    {
      "buffer": 0,
      "byteOffset": 0,
      "byteLength": 624,
      "target": 34962,
      "byteStride": 12
    },
    {
      "buffer": 0,
      "byteOffset": 624,
      "byteLength": 624,
      "target": 34962,
      "byteStride": 12
    },
    {
      "buffer": 0,
      "byteOffset": 1248,
      "byteLength": 416,
      "target": 34962,
      "byteStride": 8
    },
    {
      "buffer": 0,
      "byteOffset": 1664,
      "byteLength": 192,
      "target": 34963
    },
    {
      "buffer": 0,
      "byteOffset": 1856,
      "byteLength": 288,
      "target": 34962,
      "byteStride": 12
    },
    {
      "buffer": 0,
      "byteOffset": 2144,
      "byteLength": 288,
      "target": 34962,
      "byteStride": 12
    },
    {
      "buffer": 0,
      "byteOffset": 2432,
      "byteLength": 192,
      "target": 34962,
      "byteStride": 8
    },
    {
      "buffer": 0,
      "byteOffset": 2624,
      "byteLength": 72,
      "target": 34963
    },
    {
      "buffer": 0,
      "byteOffset": 2696,
      "byteLength": 288,
      "target": 34962,
      "byteStride": 12
    },
    {
      "buffer": 0,
      "byteOffset": 2984,
      "byteLength": 288,
      "target": 34962,
      "byteStride": 12
    },
    {
      "buffer": 0,
      "byteOffset": 3272,
      "byteLength": 192,
      "target": 34962,
      "byteStride": 8
    },
    {
      "buffer": 0,
      "byteOffset": 3464,
      "byteLength": 72,
      "target": 34963
    },
    {
      "buffer": 0,
      "byteOffset": 3536,
      "byteLength": 288,
      "target": 34962,
      "byteStride": 12
    },
    {
      "buffer": 0,
      "byteOffset": 3824,
      "byteLength": 288,
      "target": 34962,
      "byteStride": 12
    },
    {
      "buffer": 0,
      "byteOffset": 4112,
      "byteLength": 192,
      "target": 34962,
      "byteStride": 8
    },
    {
      "buffer": 0,
      "byteOffset": 4304,
      "byteLength": 72,
      "target": 34963
    },
    {
      "buffer": 0,
      "byteOffset": 4376,
      "byteLength": 288,
      "target": 34962,
      "byteStride": 12
    },
    {
      "buffer": 0,
      "byteOffset": 4664,
      "byteLength": 288,
      "target": 34962,
      "byteStride": 12
    },
    {
      "buffer": 0,
      "byteOffset": 4952,
      "byteLength": 192,
      "target": 34962,
      "byteStride": 8
    },
    {
      "buffer": 0,
      "byteOffset": 5144,
      "byteLength": 72,
      "target": 34963
    }
  ],
  "buffers": [
    {
      "byteLength": 5216,
      "uri": "data:application/octet-stream;base64,"
    }
  ],
  "accessors": [
    {
      "bufferView": 0,
      "componentType": 5126,
      "count": 52,
      "max": [
        1,
        0.5,
        1
      ],
      "min": [
        -1,
        -0.5,
        -1
      ],
      "type": "VEC3"
    },
    {
      "bufferView": 1,
      "componentType": 5126,
      "count": 52,
      "max": [
        1,
        1,
        1
      ],
      "min": [
        -1,
        -1,
        -1
      ],
      "type": "VEC3"
    },
    {
      "bufferView": 2,
      "componentType": 5126,
      "count": 52,
      "max": [
        1,
        1
      ],
      "min": [
        0,
        0
      ],
      "type": "VEC2"
    },
    {
      "bufferView": 3,
      "componentType": 5123,
      "count": 96,
      "max": [
        51
      ],
      "min": [
        0
      ],
      "type": "SCALAR"
    },
    {
      "bufferView": 4,
      "componentType": 5126,
      "count": 24,
      "max": [
        0.5,
        0.5,
        0.5
      ],
      "min": [
        -0.5,
        -0.5,
        -0.5
      ],
      "type": "VEC3"
    },
    {
      "bufferView": 5,
      "componentType": 5126,
      "count": 24,
      "max": [
        1,
        1,
        1
      ],
      "min": [
        -1,
        -1,
        -1
      ],
      "type": "VEC3"
    },
    {
      "bufferView": 6,
      "componentType": 5126,
      "count": 24,
      "max": [
        1,
        1
      ],
      "min": [
        0,
        0
      ],
      "type": "VEC2"
    },
    {
      "bufferView": 7,
      "componentType": 5123,
      "count": 36,
      "max": [
        23
      ],
      "min": [
        0
      ],
      "type": "SCALAR"
    },
    {
      "bufferView": 8,
      "componentType": 5126,
      "count": 24,
      "max": [
        0.5,
        0.5,
        0.5
      ],
      "min": [
        -0.5,
        -0.5,
        -0.5
      ],
      "type": "VEC3"
    },
    {
      "bufferView": 9,
      "componentType": 5126,
      "count": 24,
      "max": [
        1,
        1,
        1
      ],
      "min": [
        -1,
        -1,
        -1
      ],
      "type": "VEC3"
    },
    {
      "bufferView": 10,
      "componentType": 5126,
      "count": 24,
      "max": [
        1,
        1
      ],
      "min": [
        0,
        0
      ],
      "type": "VEC2"
    },
    {
      "bufferView": 11,
      "componentType": 5123,
      "count": 36,
      "max": [
        23
      ],
      "min": [
        0
      ],
      "type": "SCALAR"
    },
    {
      "bufferView": 12,
      "componentType": 5126,
      "count": 24,
      "max": [
        0.5,
        0.5,
        0.5
      ],
      "min": [
        -0.5,
        -0.5,
        -0.5
      ],
      "type": "VEC3"
    },
    {
      "bufferView": 13,
      "componentType": 5126,
      "count": 24,
      "max": [
        1,
        1,
        1
      ],
      "min": [
        -1,
        -1,
        -1
      ],
      "type": "VEC3"
    },
    {
      "bufferView": 14,
      "componentType": 5126,
      "count": 24,
      "max": [
        1,
        1
      ],
      "min": [
        0,
        0
      ],
      "type": "VEC2"
    },
    {
      "bufferView": 15,
      "componentType": 5123,
      "count": 36,
      "max": [
        23
      ],
      "min": [
        0
      ],
      "type": "SCALAR"
    },
    {
      "bufferView": 16,
      "componentType": 5126,
      "count": 24,
      "max": [
        0.5,
        0.5,
        0.5
      ],
      "min": [
        -0.5,
        -0.5,
        -0.5
      ],
      "type": "VEC3"
    },
    {
      "bufferView": 17,
      "componentType": 5126,
      "count": 24,
      "max": [
        1,
        1,
        1
      ],
      "min": [
        -1,
        -1,
        -1
      ],
      "type": "VEC3"
    },
    {
      "bufferView": 18,
      "componentType": 5126,
      "count": 24,
      "max": [
        1,
        1
      ],
      "min": [
        0,
        0
      ],
      "type": "VEC2"
    },
    {
      "bufferView": 19,
      "componentType": 5123,
      "count": 36,
      "max": [
        23
      ],
      "min": [
        0
      ],
      "type": "SCALAR"
    }
  ],
  "materials": [
    {
      "pbrMetallicRoughness": {
        "metallicFactor": 0,
        "roughnessFactor": 1
      }
    },
    {
      "pbrMetallicRoughness": {
        "baseColorFactor": [
          1,
          1,
          1,
          0.15
        ],
        "metallicFactor": 0.5,
        "roughnessFactor": 0.5
      },
      "alphaMode": "BLEND"
    },
    {
      "pbrMetallicRoughness": {
        "baseColorFactor": [
          1,
          1,
          1,
          0.15
        ],
        "metallicFactor": 0.5,
        "roughnessFactor": 0.5
      },
      "alphaMode": "BLEND"
    },
    {
      "pbrMetallicRoughness": {
        "baseColorFactor": [
          0.1803921568627451,
          0.20392156862745098,
          0.21176470588235294,
          1
        ],
        "metallicFactor": 0,
        "roughnessFactor": 1
      }
    },
    {
      "pbrMetallicRoughness": {
        "metallicFactor": 0,
        "roughnessFactor": 1
      }
    }
  ],
  "meshes": [
    {
      "primitives": [
        {
          "mode": 4,
          "attributes": {
            "POSITION": 0,
            "NORMAL": 1,
            "TEXCOORD_0": 2
          },
          "indices": 3,
          "material": 0
        }
      ]
    },
    {
      "primitives": [
        {
          "mode": 4,
          "attributes": {
            "POSITION": 4,
            "NORMAL": 5,
            "TEXCOORD_0": 6
          },
          "indices": 7,
          "material": 1
        }
      ]
    },
    {
      "primitives": [
        {
          "mode": 4,
          "attributes": {
            "POSITION": 8,
            "NORMAL": 9,
            "TEXCOORD_0": 10
          },
          "indices": 11,
          "material": 2
        }
      ]
    },
    {
      "primitives": [
        {
          "mode": 4,
          "attributes": {
            "POSITION": 12,
            "NORMAL": 13,
            "TEXCOORD_0": 14
          },
          "indices": 15,
          "material": 3
        }
      ]
    },
    {
      "primitives": [
        {
          "mode": 4,
          "attributes": {
            "POSITION": 16,
            "NORMAL": 17,
            "TEXCOORD_0": 18
          },
          "indices": 19,
          "material": 4
        }
      ]
    }
  ],
  "extensions": {
    "KHR_lights_punctual": {
      "lights": [
        {
          "name": "DirectionalLight",
          "color": [
            1,
            1,
            1
          ],
          "intensity": 1,
          "type": "directional"
        }
      ]
    }
  },
  "extensionsUsed": [
    "KHR_lights_punctual"
  ]
}